<svg width="328" height="38" viewBox="0 0 328 38" fill="none" xmlns="http://www.w3.org/2000/svg">
<path d="M140.557 17.2727C140.557 19.1761 140.196 20.7955 139.474 22.1307C138.759 23.4659 137.781 24.4858 136.543 25.1903C135.31 25.8892 133.923 26.2386 132.384 26.2386C130.832 26.2386 129.44 25.8864 128.207 25.1818C126.974 24.4773 126 23.4574 125.284 22.1222C124.568 20.7869 124.21 19.1705 124.21 17.2727C124.21 15.3693 124.568 13.75 125.284 12.4148C126 11.0795 126.974 10.0625 128.207 9.36364C129.44 8.65909 130.832 8.30682 132.384 8.30682C133.923 8.30682 135.31 8.65909 136.543 9.36364C137.781 10.0625 138.759 11.0795 139.474 12.4148C140.196 13.75 140.557 15.3693 140.557 17.2727ZM136.815 17.2727C136.815 16.0398 136.631 15 136.261 14.1534C135.898 13.3068 135.384 12.6648 134.719 12.2273C134.054 11.7898 133.276 11.571 132.384 11.571C131.491 11.571 130.713 11.7898 130.048 12.2273C129.384 12.6648 128.866 13.3068 128.497 14.1534C128.134 15 127.952 16.0398 127.952 17.2727C127.952 18.5057 128.134 19.5455 128.497 20.392C128.866 21.2386 129.384 21.8807 130.048 22.3182C130.713 22.7557 131.491 22.9744 132.384 22.9744C133.276 22.9744 134.054 22.7557 134.719 22.3182C135.384 21.8807 135.898 21.2386 136.261 20.392C136.631 19.5455 136.815 18.5057 136.815 17.2727ZM149.137 26.2557C147.796 26.2557 146.643 25.9716 145.677 25.4034C144.717 24.8295 143.978 24.0341 143.461 23.017C142.95 22 142.694 20.8295 142.694 19.5057C142.694 18.1648 142.952 16.9886 143.469 15.9773C143.992 14.9602 144.734 14.1676 145.694 13.5994C146.654 13.0256 147.796 12.7386 149.12 12.7386C150.262 12.7386 151.262 12.946 152.12 13.3608C152.978 13.7756 153.657 14.358 154.157 15.108C154.657 15.858 154.933 16.7386 154.984 17.75H151.558C151.461 17.0966 151.205 16.571 150.79 16.1733C150.381 15.7699 149.844 15.5682 149.18 15.5682C148.617 15.5682 148.126 15.7216 147.705 16.0284C147.29 16.3295 146.967 16.7699 146.734 17.3494C146.501 17.929 146.384 18.6307 146.384 19.4545C146.384 20.2898 146.498 21 146.725 21.5852C146.958 22.1705 147.285 22.6165 147.705 22.9233C148.126 23.2301 148.617 23.3835 149.18 23.3835C149.594 23.3835 149.967 23.2983 150.296 23.1278C150.631 22.9574 150.907 22.7102 151.123 22.3864C151.344 22.0568 151.489 21.6619 151.558 21.2017H154.984C154.927 22.2017 154.654 23.0824 154.165 23.8438C153.683 24.5994 153.015 25.1903 152.163 25.6165C151.31 26.0426 150.302 26.2557 149.137 26.2557ZM163.223 26.2557C161.882 26.2557 160.729 25.9716 159.763 25.4034C158.803 24.8295 158.064 24.0341 157.547 23.017C157.036 22 156.78 20.8295 156.78 19.5057C156.78 18.1648 157.038 16.9886 157.555 15.9773C158.078 14.9602 158.82 14.1676 159.78 13.5994C160.74 13.0256 161.882 12.7386 163.206 12.7386C164.348 12.7386 165.348 12.946 166.206 13.3608C167.064 13.7756 167.743 14.358 168.243 15.108C168.743 15.858 169.018 16.7386 169.07 17.75H165.643C165.547 17.0966 165.291 16.571 164.876 16.1733C164.467 15.7699 163.93 15.5682 163.266 15.5682C162.703 15.5682 162.212 15.7216 161.791 16.0284C161.376 16.3295 161.053 16.7699 160.82 17.3494C160.587 17.929 160.47 18.6307 160.47 19.4545C160.47 20.2898 160.584 21 160.811 21.5852C161.044 22.1705 161.371 22.6165 161.791 22.9233C162.212 23.2301 162.703 23.3835 163.266 23.3835C163.68 23.3835 164.053 23.2983 164.382 23.1278C164.717 22.9574 164.993 22.7102 165.209 22.3864C165.43 22.0568 165.575 21.6619 165.643 21.2017H169.07C169.013 22.2017 168.74 23.0824 168.251 23.8438C167.768 24.5994 167.101 25.1903 166.249 25.6165C165.396 26.0426 164.388 26.2557 163.223 26.2557ZM175.127 26.2472C174.292 26.2472 173.548 26.1023 172.894 25.8125C172.241 25.517 171.724 25.0824 171.343 24.5085C170.968 23.929 170.781 23.2074 170.781 22.3438C170.781 21.6165 170.914 21.0057 171.181 20.5114C171.448 20.017 171.812 19.6193 172.272 19.3182C172.732 19.017 173.255 18.7898 173.84 18.6364C174.431 18.483 175.05 18.375 175.698 18.3125C176.46 18.233 177.073 18.1591 177.539 18.0909C178.005 18.017 178.343 17.9091 178.553 17.767C178.763 17.625 178.869 17.4148 178.869 17.1364V17.0852C178.869 16.5455 178.698 16.1278 178.357 15.8324C178.022 15.5369 177.545 15.3892 176.925 15.3892C176.272 15.3892 175.752 15.5341 175.366 15.8239C174.979 16.108 174.724 16.4659 174.599 16.8977L171.241 16.625C171.411 15.8295 171.746 15.142 172.246 14.5625C172.746 13.9773 173.391 13.5284 174.181 13.2159C174.977 12.8977 175.897 12.7386 176.942 12.7386C177.67 12.7386 178.366 12.8239 179.031 12.9943C179.701 13.1648 180.295 13.429 180.812 13.7869C181.335 14.1449 181.746 14.6051 182.048 15.1676C182.349 15.7244 182.499 16.392 182.499 17.1705V26H179.056V24.1847H178.954C178.744 24.5938 178.462 24.9545 178.11 25.267C177.758 25.5739 177.335 25.8153 176.84 25.9915C176.346 26.1619 175.775 26.2472 175.127 26.2472ZM176.167 23.7415C176.701 23.7415 177.173 23.6364 177.582 23.4261C177.991 23.2102 178.312 22.9205 178.545 22.5568C178.778 22.1932 178.894 21.7812 178.894 21.321V19.9318C178.781 20.0057 178.624 20.0739 178.425 20.1364C178.232 20.1932 178.013 20.2472 177.769 20.2983C177.525 20.3437 177.281 20.3864 177.036 20.4261C176.792 20.4602 176.57 20.4915 176.371 20.5199C175.945 20.5824 175.573 20.6818 175.255 20.8182C174.937 20.9545 174.69 21.1392 174.513 21.3722C174.337 21.5994 174.249 21.8835 174.249 22.2244C174.249 22.7188 174.428 23.0966 174.786 23.358C175.15 23.6136 175.61 23.7415 176.167 23.7415ZM196.208 16.642L192.884 16.8466C192.827 16.5625 192.705 16.3068 192.518 16.0795C192.33 15.8466 192.083 15.6619 191.776 15.5256C191.475 15.3835 191.114 15.3125 190.694 15.3125C190.131 15.3125 189.657 15.4318 189.271 15.6705C188.884 15.9034 188.691 16.2159 188.691 16.608C188.691 16.9205 188.816 17.1847 189.066 17.4006C189.316 17.6165 189.745 17.7898 190.353 17.9205L192.722 18.3977C193.995 18.6591 194.944 19.0795 195.569 19.6591C196.194 20.2386 196.506 21 196.506 21.9432C196.506 22.8011 196.254 23.554 195.748 24.2017C195.248 24.8494 194.56 25.3551 193.685 25.7188C192.816 26.0767 191.813 26.2557 190.677 26.2557C188.944 26.2557 187.563 25.8949 186.535 25.1733C185.512 24.446 184.913 23.4574 184.737 22.2074L188.308 22.0199C188.415 22.5483 188.677 22.9517 189.092 23.2301C189.506 23.5028 190.038 23.6392 190.685 23.6392C191.322 23.6392 191.833 23.517 192.219 23.2727C192.612 23.0227 192.81 22.7017 192.816 22.3097C192.81 21.9801 192.671 21.7102 192.398 21.5C192.126 21.2841 191.705 21.1193 191.137 21.0057L188.87 20.554C187.592 20.2983 186.64 19.8551 186.015 19.2244C185.396 18.5937 185.086 17.7898 185.086 16.8125C185.086 15.9716 185.313 15.2472 185.768 14.6392C186.228 14.0312 186.873 13.5625 187.702 13.233C188.538 12.9034 189.515 12.7386 190.634 12.7386C192.288 12.7386 193.589 13.0881 194.538 13.7869C195.492 14.4858 196.049 15.4375 196.208 16.642ZM198.793 26V12.9091H202.423V26H198.793ZM200.616 11.2216C200.077 11.2216 199.614 11.0426 199.227 10.6847C198.847 10.321 198.656 9.88636 198.656 9.38068C198.656 8.88068 198.847 8.4517 199.227 8.09375C199.614 7.73011 200.077 7.54829 200.616 7.54829C201.156 7.54829 201.616 7.73011 201.997 8.09375C202.384 8.4517 202.577 8.88068 202.577 9.38068C202.577 9.88636 202.384 10.321 201.997 10.6847C201.616 11.0426 201.156 11.2216 200.616 11.2216ZM211.246 26.2557C209.923 26.2557 208.778 25.9744 207.812 25.4119C206.852 24.8437 206.11 24.054 205.587 23.0426C205.065 22.0256 204.803 20.8466 204.803 19.5057C204.803 18.1534 205.065 16.9716 205.587 15.9602C206.11 14.9432 206.852 14.1534 207.812 13.5909C208.778 13.0227 209.923 12.7386 211.246 12.7386C212.57 12.7386 213.712 13.0227 214.673 13.5909C215.638 14.1534 216.383 14.9432 216.906 15.9602C217.428 16.9716 217.69 18.1534 217.69 19.5057C217.69 20.8466 217.428 22.0256 216.906 23.0426C216.383 24.054 215.638 24.8437 214.673 25.4119C213.712 25.9744 212.57 26.2557 211.246 26.2557ZM211.263 23.4432C211.866 23.4432 212.369 23.2727 212.772 22.9318C213.175 22.5852 213.479 22.1136 213.684 21.517C213.894 20.9205 213.999 20.2415 213.999 19.4801C213.999 18.7188 213.894 18.0398 213.684 17.4432C213.479 16.8466 213.175 16.375 212.772 16.0284C212.369 15.6818 211.866 15.5085 211.263 15.5085C210.656 15.5085 210.144 15.6818 209.729 16.0284C209.32 16.375 209.011 16.8466 208.8 17.4432C208.596 18.0398 208.494 18.7188 208.494 19.4801C208.494 20.2415 208.596 20.9205 208.8 21.517C209.011 22.1136 209.32 22.5852 209.729 22.9318C210.144 23.2727 210.656 23.4432 211.263 23.4432ZM223.681 18.4318V26H220.05V12.9091H223.511V15.2188H223.664C223.954 14.4574 224.44 13.8551 225.121 13.4119C225.803 12.9631 226.63 12.7386 227.602 12.7386C228.511 12.7386 229.303 12.9375 229.979 13.3352C230.656 13.733 231.181 14.3011 231.556 15.0398C231.931 15.7727 232.119 16.6477 232.119 17.6648V26H228.488V18.3125C228.494 17.5114 228.289 16.8864 227.874 16.4375C227.46 15.983 226.888 15.7557 226.161 15.7557C225.673 15.7557 225.241 15.8608 224.866 16.071C224.496 16.2812 224.207 16.5881 223.996 16.9915C223.792 17.3892 223.687 17.8693 223.681 18.4318Z" fill="#495E57"/>
<rect x="9.21177" y="1.79006" width="15.4762" height="10.5238" transform="rotate(16.0767 9.21177 1.79006)" stroke="#495E57" stroke-width="0.619048"/>
<path fill-rule="evenodd" clip-rule="evenodd" d="M20.7211 16.3813C18.9897 21.0663 14.8134 23.6981 11.2157 22.6612C7.61794 21.6244 5.48278 17.1737 6.51021 12.2858L5.91431 12.114C4.8278 17.2188 7.01044 22.0936 11.0442 23.2561C15.078 24.4186 19.5202 21.4531 21.317 16.553L20.7211 16.3813Z" fill="#495E57"/>
<line x1="7.8141" y1="34.5827" x2="11.0758" y2="23.2652" stroke="#495E57" stroke-width="1.2381"/>
<line x1="3.72984" y1="33.0666" x2="12.0788" y2="35.4727" stroke="#495E57" stroke-width="1.2381"/>
<rect x="27.5866" y="6.06129" width="15.4762" height="10.5238" transform="rotate(-21.4522 27.5866 6.06129)" stroke="#495E57" stroke-width="0.619048"/>
<path fill-rule="evenodd" clip-rule="evenodd" d="M45.6024 10.6217C47.0833 15.3919 45.3745 20.023 41.8897 21.3924C38.4049 22.7617 34.0004 20.5327 31.8377 16.0305L31.2605 16.2573C33.5085 20.9675 38.209 23.5038 42.1161 21.9685C46.0232 20.4332 47.7396 15.3754 46.1796 10.3949L45.6024 10.6217Z" fill="#495E57"/>
<line x1="46.4542" y1="32.9188" x2="42.1467" y2="21.9566" stroke="#495E57" stroke-width="1.2381"/>
<line x1="42.2917" y1="34.2044" x2="50.3785" y2="31.0267" stroke="#495E57" stroke-width="1.2381"/>
<path d="M311 15.5L319 22.5L326 15" stroke="#495E57" stroke-width="3"/>
</svg>
