<svg width="55" height="38" viewBox="0 0 55 38" fill="none" xmlns="http://www.w3.org/2000/svg">
<rect x="9.21177" y="1.79006" width="15.4762" height="10.5238" transform="rotate(16.0767 9.21177 1.79006)" stroke="#495E57" stroke-width="0.619048"/>
<path fill-rule="evenodd" clip-rule="evenodd" d="M20.7211 16.3813C18.9897 21.0663 14.8134 23.6981 11.2157 22.6612C7.61794 21.6244 5.48278 17.1737 6.51021 12.2858L5.91431 12.114C4.8278 17.2188 7.01044 22.0936 11.0442 23.2561C15.078 24.4186 19.5202 21.4531 21.317 16.553L20.7211 16.3813Z" fill="#495E57"/>
<line x1="7.8141" y1="34.5827" x2="11.0758" y2="23.2652" stroke="#495E57" stroke-width="1.2381"/>
<line x1="3.72984" y1="33.0666" x2="12.0788" y2="35.4727" stroke="#495E57" stroke-width="1.2381"/>
<rect x="27.5866" y="6.06129" width="15.4762" height="10.5238" transform="rotate(-21.4522 27.5866 6.06129)" stroke="#495E57" stroke-width="0.619048"/>
<path fill-rule="evenodd" clip-rule="evenodd" d="M45.6024 10.6217C47.0833 15.3919 45.3745 20.023 41.8897 21.3924C38.4049 22.7617 34.0004 20.5327 31.8377 16.0305L31.2605 16.2573C33.5085 20.9675 38.209 23.5038 42.1161 21.9685C46.0232 20.4332 47.7396 15.3754 46.1796 10.3949L45.6024 10.6217Z" fill="#495E57"/>
<line x1="46.4542" y1="32.9188" x2="42.1467" y2="21.9566" stroke="#495E57" stroke-width="1.2381"/>
<line x1="42.2917" y1="34.2044" x2="50.3785" y2="31.0267" stroke="#495E57" stroke-width="1.2381"/>
</svg>
