<svg width="408" height="88" viewBox="0 0 408 88" fill="none" xmlns="http://www.w3.org/2000/svg">
<g filter="url(#filter0_d_16_1011)">
<rect x="4" width="400" height="80" rx="8" fill="#EDEFEE"/>
</g>
<path d="M166.557 38.2727C166.557 40.1761 166.196 41.7955 165.474 43.1307C164.759 44.4659 163.781 45.4858 162.543 46.1903C161.31 46.8892 159.923 47.2386 158.384 47.2386C156.832 47.2386 155.44 46.8864 154.207 46.1818C152.974 45.4773 152 44.4574 151.284 43.1222C150.568 41.7869 150.21 40.1705 150.21 38.2727C150.21 36.3693 150.568 34.75 151.284 33.4148C152 32.0795 152.974 31.0625 154.207 30.3636C155.44 29.6591 156.832 29.3068 158.384 29.3068C159.923 29.3068 161.31 29.6591 162.543 30.3636C163.781 31.0625 164.759 32.0795 165.474 33.4148C166.196 34.75 166.557 36.3693 166.557 38.2727ZM162.815 38.2727C162.815 37.0398 162.631 36 162.261 35.1534C161.898 34.3068 161.384 33.6648 160.719 33.2273C160.054 32.7898 159.276 32.571 158.384 32.571C157.491 32.571 156.713 32.7898 156.048 33.2273C155.384 33.6648 154.866 34.3068 154.497 35.1534C154.134 36 153.952 37.0398 153.952 38.2727C153.952 39.5057 154.134 40.5455 154.497 41.392C154.866 42.2386 155.384 42.8807 156.048 43.3182C156.713 43.7557 157.491 43.9744 158.384 43.9744C159.276 43.9744 160.054 43.7557 160.719 43.3182C161.384 42.8807 161.898 42.2386 162.261 41.392C162.631 40.5455 162.815 39.5057 162.815 38.2727ZM175.137 47.2557C173.796 47.2557 172.643 46.9716 171.677 46.4034C170.717 45.8295 169.978 45.0341 169.461 44.017C168.95 43 168.694 41.8295 168.694 40.5057C168.694 39.1648 168.952 37.9886 169.469 36.9773C169.992 35.9602 170.734 35.1676 171.694 34.5994C172.654 34.0256 173.796 33.7386 175.12 33.7386C176.262 33.7386 177.262 33.946 178.12 34.3608C178.978 34.7756 179.657 35.358 180.157 36.108C180.657 36.858 180.933 37.7386 180.984 38.75H177.558C177.461 38.0966 177.205 37.571 176.79 37.1733C176.381 36.7699 175.844 36.5682 175.18 36.5682C174.617 36.5682 174.126 36.7216 173.705 37.0284C173.29 37.3295 172.967 37.7699 172.734 38.3494C172.501 38.929 172.384 39.6307 172.384 40.4545C172.384 41.2898 172.498 42 172.725 42.5852C172.958 43.1705 173.285 43.6165 173.705 43.9233C174.126 44.2301 174.617 44.3835 175.18 44.3835C175.594 44.3835 175.967 44.2983 176.296 44.1278C176.631 43.9574 176.907 43.7102 177.123 43.3864C177.344 43.0568 177.489 42.6619 177.558 42.2017H180.984C180.927 43.2017 180.654 44.0824 180.165 44.8438C179.683 45.5994 179.015 46.1903 178.163 46.6165C177.31 47.0426 176.302 47.2557 175.137 47.2557ZM189.223 47.2557C187.882 47.2557 186.729 46.9716 185.763 46.4034C184.803 45.8295 184.064 45.0341 183.547 44.017C183.036 43 182.78 41.8295 182.78 40.5057C182.78 39.1648 183.038 37.9886 183.555 36.9773C184.078 35.9602 184.82 35.1676 185.78 34.5994C186.74 34.0256 187.882 33.7386 189.206 33.7386C190.348 33.7386 191.348 33.946 192.206 34.3608C193.064 34.7756 193.743 35.358 194.243 36.108C194.743 36.858 195.018 37.7386 195.07 38.75H191.643C191.547 38.0966 191.291 37.571 190.876 37.1733C190.467 36.7699 189.93 36.5682 189.266 36.5682C188.703 36.5682 188.212 36.7216 187.791 37.0284C187.376 37.3295 187.053 37.7699 186.82 38.3494C186.587 38.929 186.47 39.6307 186.47 40.4545C186.47 41.2898 186.584 42 186.811 42.5852C187.044 43.1705 187.371 43.6165 187.791 43.9233C188.212 44.2301 188.703 44.3835 189.266 44.3835C189.68 44.3835 190.053 44.2983 190.382 44.1278C190.717 43.9574 190.993 43.7102 191.209 43.3864C191.43 43.0568 191.575 42.6619 191.643 42.2017H195.07C195.013 43.2017 194.74 44.0824 194.251 44.8438C193.768 45.5994 193.101 46.1903 192.249 46.6165C191.396 47.0426 190.388 47.2557 189.223 47.2557ZM201.127 47.2472C200.292 47.2472 199.548 47.1023 198.894 46.8125C198.241 46.517 197.724 46.0824 197.343 45.5085C196.968 44.929 196.781 44.2074 196.781 43.3438C196.781 42.6165 196.914 42.0057 197.181 41.5114C197.448 41.017 197.812 40.6193 198.272 40.3182C198.732 40.017 199.255 39.7898 199.84 39.6364C200.431 39.483 201.05 39.375 201.698 39.3125C202.46 39.233 203.073 39.1591 203.539 39.0909C204.005 39.017 204.343 38.9091 204.553 38.767C204.763 38.625 204.869 38.4148 204.869 38.1364V38.0852C204.869 37.5455 204.698 37.1278 204.357 36.8324C204.022 36.5369 203.545 36.3892 202.925 36.3892C202.272 36.3892 201.752 36.5341 201.366 36.8239C200.979 37.108 200.724 37.4659 200.599 37.8977L197.241 37.625C197.411 36.8295 197.746 36.142 198.246 35.5625C198.746 34.9773 199.391 34.5284 200.181 34.2159C200.977 33.8977 201.897 33.7386 202.942 33.7386C203.67 33.7386 204.366 33.8239 205.031 33.9943C205.701 34.1648 206.295 34.429 206.812 34.7869C207.335 35.1449 207.746 35.6051 208.048 36.1676C208.349 36.7244 208.499 37.392 208.499 38.1705V47H205.056V45.1847H204.954C204.744 45.5938 204.462 45.9545 204.11 46.267C203.758 46.5739 203.335 46.8153 202.84 46.9915C202.346 47.1619 201.775 47.2472 201.127 47.2472ZM202.167 44.7415C202.701 44.7415 203.173 44.6364 203.582 44.4261C203.991 44.2102 204.312 43.9205 204.545 43.5568C204.778 43.1932 204.894 42.7812 204.894 42.321V40.9318C204.781 41.0057 204.624 41.0739 204.425 41.1364C204.232 41.1932 204.013 41.2472 203.769 41.2983C203.525 41.3437 203.281 41.3864 203.036 41.4261C202.792 41.4602 202.57 41.4915 202.371 41.5199C201.945 41.5824 201.573 41.6818 201.255 41.8182C200.937 41.9545 200.69 42.1392 200.513 42.3722C200.337 42.5994 200.249 42.8835 200.249 43.2244C200.249 43.7188 200.428 44.0966 200.786 44.358C201.15 44.6136 201.61 44.7415 202.167 44.7415ZM222.208 37.642L218.884 37.8466C218.827 37.5625 218.705 37.3068 218.518 37.0795C218.33 36.8466 218.083 36.6619 217.776 36.5256C217.475 36.3835 217.114 36.3125 216.694 36.3125C216.131 36.3125 215.657 36.4318 215.271 36.6705C214.884 36.9034 214.691 37.2159 214.691 37.608C214.691 37.9205 214.816 38.1847 215.066 38.4006C215.316 38.6165 215.745 38.7898 216.353 38.9205L218.722 39.3977C219.995 39.6591 220.944 40.0795 221.569 40.6591C222.194 41.2386 222.506 42 222.506 42.9432C222.506 43.8011 222.254 44.554 221.748 45.2017C221.248 45.8494 220.56 46.3551 219.685 46.7188C218.816 47.0767 217.813 47.2557 216.677 47.2557C214.944 47.2557 213.563 46.8949 212.535 46.1733C211.512 45.446 210.913 44.4574 210.737 43.2074L214.308 43.0199C214.415 43.5483 214.677 43.9517 215.092 44.2301C215.506 44.5028 216.038 44.6392 216.685 44.6392C217.322 44.6392 217.833 44.517 218.219 44.2727C218.612 44.0227 218.81 43.7017 218.816 43.3097C218.81 42.9801 218.671 42.7102 218.398 42.5C218.126 42.2841 217.705 42.1193 217.137 42.0057L214.87 41.554C213.592 41.2983 212.64 40.8551 212.015 40.2244C211.396 39.5937 211.086 38.7898 211.086 37.8125C211.086 36.9716 211.313 36.2472 211.768 35.6392C212.228 35.0312 212.873 34.5625 213.702 34.233C214.538 33.9034 215.515 33.7386 216.634 33.7386C218.288 33.7386 219.589 34.0881 220.538 34.7869C221.492 35.4858 222.049 36.4375 222.208 37.642ZM224.793 47V33.9091H228.423V47H224.793ZM226.616 32.2216C226.077 32.2216 225.614 32.0426 225.227 31.6847C224.847 31.321 224.656 30.8864 224.656 30.3807C224.656 29.8807 224.847 29.4517 225.227 29.0938C225.614 28.7301 226.077 28.5483 226.616 28.5483C227.156 28.5483 227.616 28.7301 227.997 29.0938C228.384 29.4517 228.577 29.8807 228.577 30.3807C228.577 30.8864 228.384 31.321 227.997 31.6847C227.616 32.0426 227.156 32.2216 226.616 32.2216ZM237.246 47.2557C235.923 47.2557 234.778 46.9744 233.812 46.4119C232.852 45.8437 232.11 45.054 231.587 44.0426C231.065 43.0256 230.803 41.8466 230.803 40.5057C230.803 39.1534 231.065 37.9716 231.587 36.9602C232.11 35.9432 232.852 35.1534 233.812 34.5909C234.778 34.0227 235.923 33.7386 237.246 33.7386C238.57 33.7386 239.712 34.0227 240.673 34.5909C241.638 35.1534 242.383 35.9432 242.906 36.9602C243.428 37.9716 243.69 39.1534 243.69 40.5057C243.69 41.8466 243.428 43.0256 242.906 44.0426C242.383 45.054 241.638 45.8437 240.673 46.4119C239.712 46.9744 238.57 47.2557 237.246 47.2557ZM237.263 44.4432C237.866 44.4432 238.369 44.2727 238.772 43.9318C239.175 43.5852 239.479 43.1136 239.684 42.517C239.894 41.9205 239.999 41.2415 239.999 40.4801C239.999 39.7188 239.894 39.0398 239.684 38.4432C239.479 37.8466 239.175 37.375 238.772 37.0284C238.369 36.6818 237.866 36.5085 237.263 36.5085C236.656 36.5085 236.144 36.6818 235.729 37.0284C235.32 37.375 235.011 37.8466 234.8 38.4432C234.596 39.0398 234.494 39.7188 234.494 40.4801C234.494 41.2415 234.596 41.9205 234.8 42.517C235.011 43.1136 235.32 43.5852 235.729 43.9318C236.144 44.2727 236.656 44.4432 237.263 44.4432ZM249.681 39.4318V47H246.05V33.9091H249.511V36.2188H249.664C249.954 35.4574 250.44 34.8551 251.121 34.4119C251.803 33.9631 252.63 33.7386 253.602 33.7386C254.511 33.7386 255.303 33.9375 255.979 34.3352C256.656 34.733 257.181 35.3011 257.556 36.0398C257.931 36.7727 258.119 37.6477 258.119 38.6648V47H254.488V39.3125C254.494 38.5114 254.289 37.8864 253.874 37.4375C253.46 36.983 252.888 36.7557 252.161 36.7557C251.673 36.7557 251.241 36.8608 250.866 37.071C250.496 37.2812 250.207 37.5881 249.996 37.9915C249.792 38.3892 249.687 38.8693 249.681 39.4318Z" fill="#495E57"/>
<rect x="35.2118" y="22.7901" width="15.4762" height="10.5238" transform="rotate(16.0767 35.2118 22.7901)" stroke="#495E57" stroke-width="0.619048"/>
<path fill-rule="evenodd" clip-rule="evenodd" d="M46.7211 37.3813C44.9897 42.0663 40.8134 44.6981 37.2157 43.6612C33.6179 42.6244 31.4828 38.1737 32.5102 33.2858L31.9143 33.114C30.8278 38.2188 33.0104 43.0936 37.0442 44.2561C41.078 45.4186 45.5202 42.4531 47.317 37.553L46.7211 37.3813Z" fill="#495E57"/>
<line x1="33.8141" y1="55.5827" x2="37.0758" y2="44.2652" stroke="#495E57" stroke-width="1.2381"/>
<line x1="29.7298" y1="54.0666" x2="38.0788" y2="56.4727" stroke="#495E57" stroke-width="1.2381"/>
<rect x="53.5866" y="27.0613" width="15.4762" height="10.5238" transform="rotate(-21.4522 53.5866 27.0613)" stroke="#495E57" stroke-width="0.619048"/>
<path fill-rule="evenodd" clip-rule="evenodd" d="M71.6024 31.6217C73.0833 36.3919 71.3745 41.023 67.8897 42.3924C64.4049 43.7617 60.0004 41.5327 57.8377 37.0305L57.2605 37.2573C59.5085 41.9675 64.209 44.5038 68.1161 42.9685C72.0232 41.4332 73.7396 36.3754 72.1796 31.3949L71.6024 31.6217Z" fill="#495E57"/>
<line x1="72.4542" y1="53.9188" x2="68.1467" y2="42.9566" stroke="#495E57" stroke-width="1.2381"/>
<line x1="68.2917" y1="55.2044" x2="76.3785" y2="52.0267" stroke="#495E57" stroke-width="1.2381"/>
<path d="M337 36.5L345 43.5L352 36" stroke="#495E57" stroke-width="3"/>
<defs>
<filter id="filter0_d_16_1011" x="0" y="0" width="408" height="88" filterUnits="userSpaceOnUse" color-interpolation-filters="sRGB">
<feFlood flood-opacity="0" result="BackgroundImageFix"/>
<feColorMatrix in="SourceAlpha" type="matrix" values="0 0 0 0 0 0 0 0 0 0 0 0 0 0 0 0 0 0 127 0" result="hardAlpha"/>
<feOffset dy="4"/>
<feGaussianBlur stdDeviation="2"/>
<feComposite in2="hardAlpha" operator="out"/>
<feColorMatrix type="matrix" values="0 0 0 0 0 0 0 0 0 0 0 0 0 0 0 0 0 0 0.25 0"/>
<feBlend mode="normal" in2="BackgroundImageFix" result="effect1_dropShadow_16_1011"/>
<feBlend mode="normal" in="SourceGraphic" in2="effect1_dropShadow_16_1011" result="shape"/>
</filter>
</defs>
</svg>
